<svg id="visual" viewBox="0 0 960 540" width="960" height="540" xmlns="http://www.w3.org/2000/svg" xmlns:xlink="http://www.w3.org/1999/xlink" version="1.1"><rect x="0" y="0" width="960" height="540" fill="#000000"></rect><g fill="#d1d1d1"><circle r="13" cx="198" cy="20"></circle><circle r="1" cx="940" cy="258"></circle><circle r="3" cx="367" cy="520"></circle><circle r="2" cx="248" cy="450"></circle><circle r="4" cx="839" cy="1"></circle><circle r="8" cx="858" cy="227"></circle><circle r="5" cx="791" cy="84"></circle><circle r="7" cx="901" cy="443"></circle><circle r="2" cx="230" cy="492"></circle><circle r="2" cx="322" cy="121"></circle><circle r="1" cx="709" cy="101"></circle><circle r="0" cx="150" cy="301"></circle><circle r="3" cx="480" cy="484"></circle><circle r="4" cx="204" cy="206"></circle><circle r="10" cx="523" cy="331"></circle><circle r="7" cx="353" cy="232"></circle><circle r="11" cx="122" cy="190"></circle><circle r="2" cx="32" cy="270"></circle></g></svg>