<svg id="visual" viewBox="0 0 960 540" width="960" height="540" xmlns="http://www.w3.org/2000/svg" xmlns:xlink="http://www.w3.org/1999/xlink" version="1.1"><rect x="0" y="0" width="960" height="540" fill="#ffffff"></rect><path d="M0 30L32 40.3C64 50.7 128 71.3 192 69C256 66.7 320 41.3 384 39.2C448 37 512 58 576 66.7C640 75.3 704 71.7 768 63.7C832 55.7 896 43.3 928 37.2L960 31L960 0L928 0C896 0 832 0 768 0C704 0 640 0 576 0C512 0 448 0 384 0C320 0 256 0 192 0C128 0 64 0 32 0L0 0Z" fill="#000000" stroke-linecap="round" stroke-linejoin="miter"></path></svg>